<svg xmlns="http://www.w3.org/2000/svg" viewBox="0 0 120 120" fill="none">
  <defs>
    <linearGradient id="trophy-bg" x1="0%" y1="0%" x2="100%" y2="100%">
      <stop offset="0%" style="stop-color:#6366F1"/>
      <stop offset="100%" style="stop-color:#4F46E5"/>
    </linearGradient>
  </defs>
  <circle cx="60" cy="60" r="55" fill="url(#trophy-bg)" opacity="0.15"/>
  <circle cx="60" cy="60" r="50" fill="none" stroke="url(#trophy-bg)" stroke-width="3"/>
  <!-- Trophy cup -->
  <path d="M42 35h36v8c0 14-8 24-18 28-10-4-18-14-18-28z" fill="#A5B4FC" stroke="#6366F1" stroke-width="2"/>
  <!-- Handles -->
  <path d="M42 40c-8 0-12 6-10 14s8 10 12 8" stroke="#6366F1" stroke-width="2.5" fill="none"/>
  <path d="M78 40c8 0 12 6 10 14s-8 10-12 8" stroke="#6366F1" stroke-width="2.5" fill="none"/>
  <!-- Stem -->
  <rect x="56" y="71" width="8" height="10" rx="1" fill="#6366F1"/>
  <!-- Base -->
  <rect x="46" y="81" width="28" height="6" rx="2" fill="#6366F1"/>
  <!-- Star -->
  <polygon points="60,42 63,50 71,50 65,55 67,63 60,58 53,63 55,55 49,50 57,50" fill="#FDE68A"/>
  <!-- Shine -->
  <path d="M48 38l4 20c-2-12 1-18 6-20z" fill="white" opacity="0.25"/>
</svg>
